<?xml version="1.0" encoding="UTF-8"?> <svg xmlns="http://www.w3.org/2000/svg" width="33" height="60" viewBox="0 0 33 60" fill="none"><path d="M11.5377 38.3837C11.5377 38.5533 11.4008 38.6903 11.2323 38.6903C10.9268 38.6903 10.7807 38.8353 10.5478 39.0929C10.3047 39.3617 10.0013 39.6958 9.4098 39.6958C8.81931 39.6958 8.51593 39.3617 8.27281 39.0929C8.03987 38.8353 7.89377 38.6903 7.58836 38.6903C7.28394 38.6903 7.13783 38.8353 6.9049 39.0929C6.66177 39.3617 6.35936 39.6958 5.76783 39.6958C5.17742 39.6958 4.87397 39.3617 4.63091 39.0929C4.44597 38.8885 4.31518 38.7547 4.11707 38.7087C4.06595 38.6964 4.00978 38.6903 3.94744 38.6903C3.64302 38.6903 3.49593 38.8353 3.26398 39.0929C3.02085 39.3617 2.71746 39.6958 2.12699 39.6958C1.53554 39.6958 1.23313 39.3617 0.989999 39.0929C0.86122 38.9508 0.75811 38.8435 0.641612 38.7761C0.629394 38.555 0.629395 38.3387 0.629395 38.1159C1.01649 38.21 1.24943 38.4664 1.44359 38.6821C1.67652 38.9385 1.82257 39.0837 2.12699 39.0837C2.43141 39.0837 2.57752 38.9385 2.80942 38.6821C3.05358 38.4123 3.35593 38.0781 3.94744 38.0781C3.99848 38.0781 4.04757 38.0802 4.09453 38.0863C4.59001 38.1354 4.86275 38.4358 5.08444 38.6821C5.31736 38.9385 5.46341 39.0837 5.76785 39.0837C6.07227 39.0837 6.21838 38.9385 6.45131 38.6821C6.6945 38.4123 6.99782 38.0781 7.58836 38.0781C8.17981 38.0781 8.48321 38.4123 8.72639 38.6811C8.95925 38.9386 9.10537 39.0837 9.4098 39.0837C9.71526 39.0837 9.86137 38.9386 10.0942 38.6811C10.3374 38.4123 10.6408 38.0781 11.2323 38.0781C11.4008 38.0781 11.5377 38.2151 11.5377 38.3837Z" fill="#F8F9FA"></path><path d="M11.5385 41.0185C11.5385 41.1871 11.4016 41.324 11.2331 41.324C10.9379 41.324 10.7948 41.4691 10.568 41.7246C10.329 41.9944 10.0307 42.3306 9.44637 42.3306C8.862 42.3306 8.56367 41.9944 8.32464 41.7246C8.09788 41.4691 7.95483 41.324 7.66064 41.324C7.36642 41.324 7.22336 41.4691 6.9966 41.7246C6.75757 41.9944 6.45924 42.3306 5.87591 42.3306C5.2916 42.3306 4.99431 41.9944 4.75529 41.7246C4.56222 41.508 4.43143 41.37 4.21584 41.3342C4.17805 41.3271 4.13617 41.324 4.09227 41.324C3.79804 41.324 3.65505 41.4691 3.42925 41.7246C3.18918 41.9944 2.89196 42.3306 2.30759 42.3306C1.72425 42.3306 1.42594 41.9944 1.1869 41.7246C1.08988 41.6142 1.00716 41.5294 0.922343 41.464C0.862403 41.2303 0.819608 40.983 0.800781 40.7436C1.20632 40.8294 1.44743 41.0952 1.64458 41.3179C1.87135 41.5734 2.01336 41.7185 2.30759 41.7185C2.60175 41.7185 2.74482 41.5734 2.9706 41.3179C3.21061 41.0481 3.50789 40.7119 4.09227 40.7119C4.12701 40.7119 4.16072 40.713 4.19345 40.7161C4.71132 40.7518 4.9882 41.0645 5.21296 41.3179C5.43972 41.5734 5.58175 41.7185 5.87591 41.7185C6.17014 41.7185 6.31215 41.5734 6.53891 41.3179C6.77906 41.0481 7.07628 40.7119 7.66064 40.7119C8.24496 40.7119 8.54328 41.0481 8.78231 41.3179C9.00907 41.5734 9.15213 41.7185 9.44637 41.7185C9.74157 41.7185 9.88359 41.5734 10.1104 41.3179C10.3504 41.0481 10.6488 40.7119 11.2331 40.7119C11.4016 40.7119 11.5385 40.8489 11.5385 41.0185Z" fill="#F8F9FA"></path><path d="M11.5375 43.6546C11.5375 43.8242 11.4006 43.9612 11.232 43.9612C10.9684 43.9612 10.8438 44.0961 10.6293 44.3536C10.4015 44.6275 10.1185 44.9678 9.55669 44.9678C8.99477 44.9678 8.71178 44.6275 8.48397 44.3536C8.26943 44.0961 8.14481 43.9612 7.88122 43.9612C7.61875 43.9612 7.4951 44.0961 7.28056 44.3536C7.05275 44.6275 6.76982 44.9678 6.20792 44.9678C5.64608 44.9678 5.36412 44.6275 5.13631 44.3536C4.92177 44.0961 4.79812 43.9612 4.53559 43.9612C4.44876 43.9612 4.37824 43.9755 4.31395 44.0042C4.18109 44.0634 4.0779 44.1809 3.93387 44.3536C3.70711 44.6275 3.42411 44.9678 2.86227 44.9678C2.30037 44.9678 2.01847 44.6275 1.7906 44.3536C1.77223 44.3311 1.75691 44.3148 1.73853 44.2944C1.59839 43.9934 1.49151 43.6815 1.40649 43.3685C1.82743 43.4431 2.06543 43.7272 2.2616 43.9622C2.47609 44.2197 2.59973 44.3546 2.86227 44.3546C3.12482 44.3546 3.24942 44.2197 3.46398 43.9622C3.65504 43.7313 3.88588 43.4544 4.29043 43.3736C4.36602 43.3572 4.44772 43.3491 4.53559 43.3491C5.09749 43.3491 5.38042 43.6884 5.60724 43.9622C5.82174 44.2197 5.94538 44.3546 6.20792 44.3546C6.47047 44.3546 6.59515 44.2197 6.80963 43.9622C7.03645 43.6884 7.31938 43.3491 7.88122 43.3491C8.44417 43.3491 8.7271 43.6884 8.95394 43.9622C9.16946 44.2197 9.29408 44.3546 9.55669 44.3546C9.8202 44.3546 9.94383 44.2197 10.1583 43.9622C10.3862 43.6884 10.6691 43.3491 11.232 43.3491C11.4006 43.3491 11.5375 43.486 11.5375 43.6546Z" fill="#F8F9FA"></path><path d="M27.42 24.9193C27.4333 24.8722 27.466 24.8467 27.4844 24.8365C27.4976 24.8283 27.5212 24.818 27.5529 24.818C27.5641 24.818 27.5753 24.8191 27.5886 24.8232C27.6356 24.8355 27.6612 24.8681 27.6714 24.8865C27.6816 24.905 27.698 24.9428 27.6847 24.9908C27.6724 25.0388 27.6398 25.0633 27.6213 25.0746C27.6029 25.0848 27.5641 25.1011 27.5171 25.0879C27.4691 25.0746 27.4446 25.0419 27.4333 25.0234C27.4231 25.0051 27.4078 24.9673 27.42 24.9193ZM27.3526 25.7C27.419 25.7183 27.4864 25.7265 27.5539 25.7265C27.6878 25.7265 27.8186 25.6918 27.9381 25.6233C28.1159 25.5211 28.2437 25.3546 28.2979 25.1553C28.351 24.956 28.3234 24.7486 28.2212 24.5698C28.1179 24.3919 27.9514 24.2642 27.7532 24.21C27.5539 24.1569 27.3464 24.1845 27.1676 24.2867C26.9888 24.3899 26.8611 24.5565 26.8079 24.7547C26.7548 24.954 26.7814 25.1615 26.8846 25.3402C26.9878 25.5191 27.1533 25.6468 27.3526 25.7Z" fill="#F8F9FA"></path><path d="M28.2605 20.547C28.2288 20.3867 28.0732 20.2823 27.9129 20.3144L26.2018 20.6538C26.0417 20.6855 25.9375 20.8412 25.9693 21.0013C25.9973 21.1421 26.1208 21.2396 26.2591 21.2396C26.2781 21.2396 26.2974 21.2378 26.3169 21.2339L28.028 20.8945C28.1882 20.8627 28.2923 20.7071 28.2605 20.547Z" fill="#F8F9FA"></path><path d="M25.3692 18.9615C25.4214 18.9615 25.4743 18.9478 25.5222 18.9187L27.014 18.0145C27.1537 17.9298 27.1982 17.7481 27.1136 17.6083C27.0289 17.4689 26.8471 17.4238 26.7075 17.5088L25.2157 18.413C25.076 18.4977 25.0315 18.6794 25.1161 18.8192C25.1717 18.9109 25.2692 18.9615 25.3692 18.9615Z" fill="#F8F9FA"></path><path d="M24.6153 15.2808L23.5228 16.6408C23.4204 16.7681 23.4407 16.9542 23.5681 17.0566C23.6227 17.1003 23.6881 17.1217 23.753 17.1217C23.8396 17.1217 23.9253 17.0839 23.9837 17.0113L25.0763 15.6513C25.1785 15.524 25.1582 15.3378 25.0309 15.2355C24.9036 15.1334 24.7175 15.1536 24.6153 15.2808Z" fill="#F8F9FA"></path><path d="M21.8859 13.9065L21.3244 15.5582C21.2719 15.7128 21.3545 15.8807 21.5092 15.9332C21.5408 15.9439 21.5729 15.9491 21.6044 15.9491C21.7275 15.9491 21.8424 15.8716 21.8843 15.7484L22.4458 14.0967C22.4984 13.9422 22.4156 13.7742 22.261 13.7217C22.1064 13.6696 21.9386 13.7519 21.8859 13.9065Z" fill="#F8F9FA"></path><path d="M19.1431 13.248C18.9798 13.2517 18.8504 13.3868 18.8538 13.5501L18.891 15.2941C18.8945 15.4552 19.0262 15.5834 19.1865 15.5834H19.1929C19.3561 15.5798 19.4857 15.4447 19.4822 15.2814L19.445 13.5374C19.4416 13.3741 19.3032 13.248 19.1431 13.248Z" fill="#F8F9FA"></path><path d="M20.038 24.7917C19.9174 24.9101 19.9155 25.104 20.034 25.2246C20.094 25.2856 20.1732 25.3162 20.2524 25.3162C20.3298 25.3162 20.4073 25.2871 20.4668 25.2285C20.5397 25.157 20.605 25.0775 20.6692 24.9976C20.6759 24.9913 20.6809 24.984 20.6871 24.9771C20.6983 24.9629 20.7121 24.9507 20.7229 24.9363C21.0625 24.4846 21.242 23.9464 21.242 23.3797C21.242 21.9507 20.0798 20.7881 18.651 20.7881C18.4205 20.7881 18.1917 20.8185 17.9713 20.8781C17.808 20.9225 17.7117 21.0907 17.7558 21.2538C17.8002 21.4172 17.9687 21.5134 18.1314 21.4693C18.2997 21.4236 18.4746 21.4004 18.651 21.4004C19.7421 21.4004 20.6299 22.2883 20.6299 23.3797C20.6299 23.8125 20.4929 24.2235 20.2337 24.5683C20.1742 24.6474 20.1083 24.7225 20.038 24.7917Z" fill="#F8F9FA"></path><path d="M23.6498 26.4455C23.6347 26.4807 23.6272 26.521 23.6272 26.5638C23.6272 26.7348 23.763 26.8706 23.9341 26.8706C24.0396 26.8706 24.1328 26.8178 24.188 26.7348C24.7992 25.7285 25.1262 24.5662 25.1262 23.3787C25.1262 19.8062 22.2213 16.9004 18.6498 16.9004C18.587 16.9004 18.5266 16.9029 18.4637 16.9029C18.2952 16.908 18.1619 17.0489 18.1669 17.2174C18.172 17.3885 18.3027 17.5193 18.4813 17.5168C18.5366 17.5143 18.5945 17.5143 18.6498 17.5143C21.8842 17.5143 24.515 20.1433 24.515 23.3787C24.515 24.4429 24.2233 25.4845 23.6825 26.3876C23.6699 26.4052 23.6599 26.4254 23.6498 26.4455Z" fill="#F8F9FA"></path><path d="M21.8832 25.7073C21.8832 25.8759 22.0216 26.0143 22.1926 26.0143C22.2958 26.0143 22.3887 25.9614 22.4441 25.8809C22.4466 25.8784 22.4466 25.8784 22.4491 25.8759C22.932 25.1387 23.1936 24.2758 23.1936 23.3776C23.1936 20.8719 21.1539 18.8315 18.6488 18.8315C18.4804 18.8315 18.342 18.9699 18.342 19.1385C18.342 19.307 18.4804 19.4429 18.6488 19.4429C20.8168 19.4429 22.5825 21.209 22.5825 23.3776C22.5825 24.1525 22.356 24.8998 21.936 25.5363C21.9034 25.5841 21.8832 25.6419 21.8832 25.7073Z" fill="#F8F9FA"></path><path d="M27.4891 38.6368C26.3547 38.3606 25.1258 38.2245 23.8246 38.0806C20.4455 37.7073 16.9515 37.321 15.2109 34.3479C14.1545 32.543 14.1421 30.3853 15.1784 28.7163C15.1806 28.7128 15.1816 28.7091 15.1837 28.7056C16.1295 27.2339 17.9306 26.3724 19.8274 26.555C22.4948 26.8145 23.3392 28.9208 24.233 31.1506C24.3456 31.4312 24.4583 31.7124 24.5749 31.9906C25.2391 33.5753 26.0867 34.5753 27.1659 35.0478C27.2073 35.0659 27.2504 35.0745 27.2929 35.0745C27.415 35.0745 27.5313 35.0036 27.5834 34.8845C27.6535 34.7242 27.5804 34.5373 27.4201 34.4671C26.4971 34.0629 25.7577 33.1727 25.1594 31.7454C25.0441 31.4703 24.9326 31.1922 24.8213 30.9148C23.8962 28.607 22.9397 26.2208 19.8888 25.9241C17.4189 25.684 15.0892 27.0292 14.2198 29.1947C14.216 29.2042 14.2143 29.2139 14.2115 29.2234C13.5075 30.9391 13.6588 32.95 14.6646 34.6677C16.5657 37.9158 20.2205 38.3198 23.7551 38.7104C25.0354 38.852 26.2446 38.9857 27.3391 39.2524C29.2505 39.7181 31.5302 40.7596 31.5358 43.0757C31.5388 44.3464 31.0272 45.9338 30.2324 47.1194C30.135 47.2644 30.1738 47.4612 30.319 47.5586C30.3733 47.5951 30.4345 47.6124 30.4951 47.6124C30.5971 47.6124 30.6973 47.5632 30.7584 47.472C31.6188 46.1889 32.1725 44.4624 32.169 43.0743C32.1639 40.9468 30.5019 39.3711 27.4891 38.6368Z" fill="#F8F9FA"></path><path d="M20.4526 39.7253C19.4944 39.6272 18.4834 39.5216 17.4345 39.4033C14.1146 39.0284 9.32336 36.4372 9.25549 30.8268C9.25549 30.7866 9.25548 30.7463 9.25803 30.706C9.25803 30.55 9.25803 30.3966 9.26303 30.2381C9.34602 27.6871 10.0377 26.0165 10.6036 24.6554C11.1343 23.3799 11.5643 22.3434 11.2299 21.1509C10.6991 18.8967 8.29721 19.1081 6.53668 19.2665C6.13428 19.3043 5.72679 19.186 5.55327 19.0954C6.1544 17.3092 8.96119 17.8401 9.32088 17.9155C9.32588 17.918 9.33095 17.923 9.33601 17.923C9.50446 17.9734 9.6805 17.8828 9.73337 17.7168C10.264 16.0085 11.1418 14.9166 12.3415 14.4688C13.2871 14.1141 14.5171 14.2751 15.5507 14.884C16.4008 15.3846 16.9718 16.1041 17.0749 16.8036C17.1755 17.4752 17.0598 18.074 16.8838 18.7206V18.7231C16.8812 18.7307 16.8787 18.7407 16.8762 18.7483C16.8032 18.9697 16.7404 19.1911 16.6901 19.4074C16.6096 19.7244 16.5543 20.0339 16.5215 20.3357C16.3128 22.1069 16.8184 23.5963 17.9728 24.4819C18.0306 24.5272 18.0985 24.5498 18.1664 24.5498C18.262 24.5498 18.3551 24.507 18.4179 24.424C18.5236 24.2856 18.4984 24.0869 18.3601 23.9813C17.7313 23.4982 17.3943 22.8617 17.2358 22.2025C17.1025 21.649 17.095 21.0754 17.1428 20.5572V20.5546C17.178 20.1798 17.2434 19.8326 17.3113 19.5433C17.3214 19.5005 17.3314 19.4577 17.344 19.4174C17.3465 19.4049 17.349 19.3948 17.354 19.3848C17.3968 19.2414 17.437 19.098 17.4773 18.9546C17.4798 18.9445 17.4848 18.932 17.4874 18.9218C17.4899 18.9168 17.4899 18.9093 17.4899 18.9042C17.4924 18.8892 17.4974 18.8766 17.4999 18.8615C17.6886 18.1722 17.8168 17.4904 17.7011 16.7104C17.5703 15.8223 16.8862 14.9368 15.8727 14.338C14.6604 13.6235 13.2569 13.4499 12.1201 13.8751C10.7972 14.3682 9.82389 15.5028 9.22276 17.2489C7.8118 16.9872 5.41995 17.0752 4.90688 19.0476C4.86416 19.181 4.89681 19.3269 4.99241 19.4452C5.23138 19.747 5.96576 19.9533 6.59201 19.898C6.88878 19.8729 7.18555 19.8477 7.48484 19.8326C7.75401 19.8175 8.0231 19.81 8.29221 19.815C8.53117 19.8225 8.77007 19.8401 9.00399 19.8804C9.21023 19.9131 9.41394 19.9659 9.60512 20.049C9.78115 20.1219 9.94713 20.2225 10.088 20.3509C10.2314 20.4817 10.3496 20.6402 10.4375 20.8138C10.586 21.1031 10.6714 21.4277 10.7042 21.7497C10.7242 21.9459 10.7218 22.1447 10.6991 22.3384C10.6765 22.5421 10.6337 22.7434 10.5784 22.9421C10.5181 23.161 10.4452 23.3749 10.3646 23.5837C10.2766 23.8227 10.1785 24.0567 10.0829 24.2906C10.0653 24.3335 10.0477 24.3737 10.0301 24.4165C9.44413 25.8253 8.71975 27.5537 8.63423 30.2104C8.53871 32.2961 9.19515 34.4823 10.4375 36.2082C11.9994 38.3743 14.3938 39.6977 17.3616 40.0323C18.4154 40.153 19.4265 40.2562 20.3873 40.3543C25.3117 40.86 29.2026 41.26 29.439 42.8349C29.4616 42.9909 29.5975 43.1041 29.7509 43.1041C29.766 43.1041 29.7811 43.1041 29.7987 43.1016C29.9722 43.0739 30.0904 42.9129 30.0653 42.7393C29.7559 40.6814 26.0537 40.3014 20.4526 39.7253Z" fill="#F8F9FA"></path><path d="M24.693 35.0315C20.7315 33.9029 16.9896 32.8367 17.358 29.2384C17.3758 29.0646 17.2492 28.909 17.0753 28.8911C16.8981 28.8747 16.7458 29.0002 16.7281 29.1741C16.3057 33.3003 20.4814 34.4902 24.5196 35.6408C28.794 36.8586 32.8315 38.0092 32.3215 42.2385C32.3004 42.4123 32.4243 42.5701 32.5979 42.5911C32.6107 42.5926 32.6235 42.5933 32.6362 42.5933C32.7941 42.5933 32.9307 42.4751 32.9501 42.3145C33.5251 37.548 29.0351 36.2688 24.693 35.0315Z" fill="#F8F9FA"></path><path d="M17.534 46.3253C17.3652 46.2912 17.147 46.2701 16.8794 46.2788C16.7371 45.6479 16.403 43.6956 16.9421 40.9968C16.9765 40.8251 16.8651 40.6584 16.6936 40.6241C16.5218 40.5891 16.3552 40.7014 16.321 40.8724C15.7729 43.6166 16.0793 45.5961 16.245 46.3494C15.8645 46.4176 15.4183 46.539 14.8938 46.745C14.7312 46.809 14.6509 46.9928 14.7149 47.1555C14.7639 47.2805 14.8833 47.3565 15.0098 47.3565C15.0483 47.3565 15.0874 47.3494 15.1255 47.3346C16.3047 46.8718 17.0177 46.8678 17.4093 46.9465C17.5796 46.9819 17.7476 46.8697 17.7822 46.6983C17.8167 46.5267 17.7055 46.3596 17.534 46.3253Z" fill="#F8F9FA"></path><path d="M20.3056 46.2757C20.1482 45.7171 19.7879 44.0015 20.3198 41.3393C20.3541 41.1676 20.2428 41.001 20.0713 40.9666C19.9004 40.9307 19.7328 41.0439 19.6987 41.215C19.168 43.8706 19.476 45.6234 19.6655 46.3408C19.3051 46.4084 18.8829 46.5331 18.3854 46.7485C18.225 46.8181 18.1512 47.0047 18.2208 47.1651C18.2726 47.2846 18.389 47.356 18.5115 47.356C18.5536 47.356 18.5963 47.3477 18.6372 47.33C20.3651 46.5812 20.962 47.0579 20.9628 47.0579C21.0868 47.181 21.2876 47.1803 21.4107 47.056C21.534 46.9317 21.5331 46.7312 21.4088 46.6081C21.3574 46.557 21.0361 46.2753 20.3056 46.2757Z" fill="#F8F9FA"></path><path d="M13.3272 16.081C13.1284 15.9969 12.8998 16.1069 12.8168 16.3267L12.6045 16.8887C12.5214 17.1085 12.6152 17.3549 12.814 17.4391C13.0129 17.5233 13.2414 17.4133 13.3245 17.1934L13.5368 16.6314C13.6198 16.4116 13.526 16.1651 13.3272 16.081Z" fill="#F8F9FA"></path><path d="M16.3859 0.633565C25.0785 0.633565 32.1478 7.84393 32.1478 16.7078V26.7004C31.6802 26.6099 31.2653 26.464 30.8907 26.2628C30.111 25.8427 29.3062 24.9647 29.3791 24.0262C29.4017 23.757 29.4949 23.5533 29.6633 23.4049C29.8092 23.274 30.0507 23.1633 30.282 23.2362C30.4355 23.2866 30.5688 23.4148 30.6417 23.5834C30.7071 23.7369 30.7097 23.8954 30.6493 24.0212C30.6442 24.0313 30.6392 24.0413 30.6342 24.0489C30.5863 24.1243 30.4908 24.1596 30.4028 24.1369C30.3173 24.1142 30.2393 24.0288 30.2217 23.9331C30.1864 23.762 30.0179 23.6514 29.847 23.6866C29.6759 23.7218 29.5653 23.8904 29.6005 24.0614C29.6658 24.391 29.9249 24.6677 30.2419 24.7508C30.5914 24.8414 30.9712 24.6954 31.1648 24.3936C31.185 24.3634 31.2051 24.3307 31.2202 24.2954C31.361 24.0061 31.361 23.6539 31.2227 23.3344C31.0793 22.9972 30.8001 22.7356 30.4732 22.6324C30.0683 22.5042 29.598 22.6174 29.2434 22.9293C28.949 23.1885 28.7831 23.5407 28.7479 23.9759C28.6522 25.2036 29.603 26.288 30.5889 26.8213C31.0541 27.0704 31.5648 27.244 32.1482 27.3446C32.2311 27.3617 32.3163 27.374 32.4016 27.3862C32.4042 27.3865 32.4068 27.3871 32.4093 27.3875C32.4121 27.3878 32.4145 27.3876 32.4171 27.3878C32.429 27.3892 32.44 27.3899 32.4526 27.3899C32.5695 27.3899 32.6752 27.3247 32.7302 27.2253C32.7386 27.2103 32.7453 27.1942 32.7512 27.1778C32.7518 27.1761 32.7528 27.1746 32.7533 27.1729C32.7564 27.1638 32.7579 27.1538 32.7602 27.1442C32.7625 27.1347 32.7656 27.1255 32.7669 27.1157C32.7695 27.1006 32.7695 27.088 32.7695 27.0729C32.7695 27.0712 32.769 27.0695 32.769 27.0677V16.7078C32.769 7.49448 25.4208 0 16.3861 0C7.34923 0 0 7.49448 0 16.7078V35.3122C0 35.4879 0.138955 35.629 0.309548 35.629C0.453585 35.629 0.574104 35.5318 0.609887 35.398C0.618069 35.3714 0.622152 35.3418 0.622152 35.3122V16.7078C0.622152 7.84395 7.6945 0.633565 16.3861 0.633565" fill="#F8F9FA"></path><path d="M32.1491 31.8973V36.7152C32.1491 36.8863 32.2899 37.0246 32.461 37.0246C32.632 37.0246 32.7703 36.8863 32.7703 36.7152V31.681C32.7075 30.8884 32.4987 30.1462 32.1491 29.4745C31.9881 29.1601 31.797 28.8607 31.5732 28.5789C30.3357 27.0141 28.2382 26.0606 25.6702 25.897C25.5848 25.892 25.4992 25.9222 25.4364 25.9801C25.371 26.0379 25.3357 26.1209 25.3332 26.2065L25.3257 26.4958C25.2377 30.6369 25.1597 34.2119 30.8764 34.4862H30.8916C30.9771 34.4862 31.0601 34.4509 31.1179 34.388C31.1833 34.3226 31.2135 34.232 31.206 34.1414C31.2019 34.101 31.1325 33.3304 30.8239 32.3009C30.8211 32.2882 30.8171 32.2758 30.8127 32.2635C30.7402 32.0246 30.6549 31.7724 30.5545 31.5123C29.8302 29.6406 28.6632 28.272 27.1794 27.5601C27.0208 27.4845 26.8322 27.5524 26.7567 27.7109C26.6813 27.8669 26.7467 28.0581 26.9051 28.1336C27.2533 28.3006 27.5683 28.5016 27.8543 28.7267C27.5761 28.7588 27.3275 28.8118 27.1431 28.8516C27.0858 28.864 27.0345 28.875 26.9906 28.8837C26.8189 28.9172 26.7068 29.0836 26.7402 29.2555C26.7697 29.4068 26.9023 29.5119 27.0509 29.5119C27.0711 29.5119 27.0914 29.5099 27.1119 29.506C27.1595 29.4966 27.2149 29.4848 27.2769 29.4713C27.5935 29.4029 28.0608 29.3043 28.5153 29.3417C28.6858 29.5275 28.8426 29.7216 28.9866 29.9213C28.3413 29.8671 27.7411 29.9659 27.4605 30.0246C27.2892 30.0605 27.1793 30.2284 27.2151 30.3998C27.2511 30.5711 27.4186 30.6809 27.5901 30.6452C27.915 30.5773 28.7232 30.4471 29.4423 30.6382C29.6437 30.9993 29.8099 31.3644 29.9475 31.7164C29.0847 31.443 28.1398 31.5921 28.0875 31.6007C27.9149 31.6292 27.798 31.7923 27.8265 31.965C27.8548 32.1378 28.0178 32.2561 28.1907 32.2262C28.5626 32.165 29.6224 32.1126 30.2329 32.5537C30.3878 33.0809 30.4767 33.5323 30.5243 33.827C25.8287 33.4572 25.8714 30.5488 25.9595 26.5562C28.1954 26.765 30.0037 27.6153 31.0751 28.9714C31.7291 29.7966 32.0912 30.7928 32.1491 31.8973Z" fill="#F8F9FA"></path><path d="M7.88851 12.5629C8.0048 12.5835 8.11833 12.5893 8.2291 12.5803C8.33988 12.5713 8.44385 12.5433 8.54113 12.4962C8.63827 12.4492 8.71724 12.3734 8.77796 12.2693C8.83536 12.1707 8.86401 12.0648 8.86393 11.9516C8.86387 11.8383 8.84309 11.7235 8.80167 11.607C8.76016 11.4904 8.70412 11.3747 8.63327 11.2598C8.56256 11.145 8.48638 11.0347 8.40476 10.9286C8.32321 10.8226 8.24118 10.7239 8.15871 10.6325C8.07618 10.541 8.00345 10.4618 7.9406 10.395C7.55759 9.99077 7.16633 9.59582 6.76678 9.21018C6.36729 8.8246 5.97824 8.42907 5.59959 8.02354C5.52998 7.99431 5.45893 7.9869 5.3864 8.0012C5.31399 8.01556 5.24361 8.04251 5.17535 8.08194C5.1071 8.12143 5.04521 8.1693 4.98982 8.22563C4.93437 8.28194 4.89028 8.33833 4.85749 8.39464C4.80001 8.49318 4.76905 8.60146 4.76443 8.71949C4.75982 8.83759 4.79606 8.9436 4.87333 9.03759C4.89892 9.07137 4.9284 9.10171 4.96165 9.12866C4.99495 9.15568 5.02977 9.18341 5.06586 9.212C5.22848 9.34074 5.38712 9.47475 5.5418 9.61389C5.69642 9.75303 5.84948 9.89502 6.00078 10.0398C6.15214 10.1845 6.30364 10.3275 6.4552 10.4687C6.60691 10.6099 6.76307 10.7462 6.92412 10.8777C6.97549 10.919 7.04075 10.9721 7.11984 11.037C7.19887 11.102 7.2777 11.1706 7.35634 11.2428C7.43499 11.3151 7.50655 11.3879 7.57129 11.4614C7.63591 11.5349 7.67869 11.6024 7.6996 11.6635C7.63655 11.6683 7.56057 11.6627 7.4718 11.6468C7.38296 11.6309 7.29167 11.6096 7.1977 11.5832C7.1038 11.5568 7.01282 11.5283 6.92497 11.4978C6.83718 11.4674 6.76178 11.4415 6.69886 11.4198C6.26845 11.2784 5.83921 11.1462 5.41115 11.0231C4.98314 10.9 4.55662 10.7599 4.13148 10.6027C4.06746 10.5767 4.00116 10.5578 3.93252 10.5462C3.86395 10.5345 3.79654 10.5319 3.73037 10.5387C3.66426 10.5454 3.60237 10.5659 3.54464 10.6002C3.48704 10.6346 3.43848 10.6854 3.39913 10.753C3.37938 10.7868 3.36418 10.826 3.35327 10.8705C3.34243 10.9152 3.3388 10.9603 3.34243 11.0057C3.34606 11.0513 3.3584 11.0933 3.37925 11.1319C3.40015 11.1705 3.43036 11.2013 3.46977 11.2242C3.47541 11.2275 3.49108 11.2329 3.51692 11.2404L7.57025 12.4878C7.66616 12.5173 7.77228 12.5424 7.88851 12.5629Z" fill="#F8F9FA"></path><path d="M6.36197 6.63176C6.28872 6.66528 6.22384 6.71133 6.16715 6.76987C6.09922 6.84015 6.05357 6.90601 6.03046 6.96739C6.00727 7.02897 6.00187 7.08841 6.01434 7.14577C6.02675 7.20318 6.05423 7.26035 6.09669 7.31732C6.1391 7.37422 6.19189 7.43327 6.25513 7.49452C6.48462 7.71668 6.71282 7.93649 6.93997 8.15403C7.16706 8.37171 7.39421 8.59035 7.6213 8.81023C7.91403 9.09351 8.20203 9.37698 8.48555 9.66044C8.76899 9.94399 9.06498 10.2169 9.37344 10.4792C9.495 10.5832 9.61689 10.6412 9.73924 10.6529C9.8615 10.6647 9.98275 10.6086 10.1029 10.4845C10.1369 10.4493 10.1718 10.4027 10.2078 10.3445C10.2436 10.2863 10.272 10.2253 10.2929 10.1615C10.3137 10.0978 10.3213 10.0349 10.3157 9.97269C10.3101 9.91053 10.2827 9.85798 10.2337 9.81505L6.59333 6.6176C6.51228 6.59356 6.43514 6.5983 6.36197 6.63176Z" fill="#F8F9FA"></path><path d="M13.1147 5.71074C13.0739 5.72093 13.034 5.73113 12.9962 5.7414C12.9584 5.75055 12.9196 5.76284 12.8798 5.77712C12.8645 5.4982 12.8573 5.22122 12.8604 4.94534C12.8624 4.67045 12.8787 4.39451 12.9074 4.11759C12.9431 4.16262 12.9778 4.20549 13.0146 4.24635C13.0504 4.28727 13.081 4.33318 13.1076 4.38327C13.2077 4.58666 13.317 4.78282 13.4355 4.97295C13.554 5.16302 13.6735 5.35308 13.7941 5.54419L13.7512 5.55535C13.6439 5.58296 13.5377 5.60856 13.4325 5.63305C13.3282 5.65656 13.222 5.68208 13.1147 5.71074ZM14.0127 6.25026L14.2078 6.20427C14.2763 6.31055 14.3406 6.41986 14.4009 6.5303C14.4622 6.6406 14.5174 6.75512 14.5684 6.87262C14.6012 6.94823 14.6461 7.04431 14.7013 7.15973C14.7564 7.27418 14.8208 7.38351 14.8943 7.48574C14.9679 7.58792 15.0506 7.66964 15.1426 7.73096C15.2345 7.79331 15.3336 7.81073 15.4409 7.78312C15.5011 7.76675 15.5604 7.74219 15.6187 7.70849C15.6779 7.67477 15.7279 7.63391 15.7718 7.58585C15.8148 7.5368 15.8454 7.48367 15.8659 7.42443C15.8863 7.36513 15.8873 7.30082 15.8689 7.23229C15.8434 7.1342 15.8076 7.04021 15.7626 6.95128C15.7177 6.86236 15.6738 6.77245 15.6298 6.68249C15.5818 6.58753 15.5155 6.45775 15.4327 6.29217C15.3489 6.12665 15.2519 5.94269 15.1395 5.73931C15.0282 5.53601 14.9056 5.32034 14.7717 5.09248C14.6389 4.8646 14.4989 4.6418 14.3529 4.42315C14.2068 4.20549 14.0587 3.99808 13.9065 3.80184C13.7542 3.60561 13.6031 3.43704 13.4539 3.29602C13.3047 3.15499 13.1597 3.04873 13.0208 2.97922C12.8808 2.90972 12.75 2.8903 12.6274 2.92201C12.5447 2.94344 12.4783 2.98234 12.4272 3.03749C12.3761 3.09264 12.3363 3.15604 12.3077 3.22756C12.2791 3.29907 12.2576 3.37468 12.2453 3.45341C12.2321 3.53312 12.2229 3.60873 12.2178 3.68024C12.1902 4.1932 12.1729 4.70416 12.1677 5.21408C12.1616 5.72405 12.1585 6.23494 12.1575 6.7479C12.1565 6.79799 12.1565 6.86644 12.1544 6.95329C12.1535 7.03916 12.1524 7.1342 12.1503 7.23637C12.1483 7.34064 12.1494 7.44794 12.1514 7.56033C12.1524 7.62268 12.1535 7.68193 12.1555 7.74123C12.1289 7.74935 12.1023 7.76065 12.0768 7.77694C12.0165 7.81579 11.9675 7.87095 11.9297 7.94149C11.8919 8.01204 11.8562 8.0866 11.8225 8.16422C11.7888 8.24191 11.7499 8.31752 11.705 8.39313C11.66 8.46777 11.5977 8.5311 11.5181 8.58223C11.4138 8.64867 11.3178 8.66394 11.2289 8.62822C11.14 8.59243 11.0584 8.53318 10.9848 8.45042C10.9112 8.36865 10.8438 8.27667 10.7856 8.17553C10.7263 8.07335 10.6752 7.99052 10.6333 7.92408L8.81697 5.1221C8.78327 5.07 8.74034 5.02914 8.68618 4.99952C8.63307 4.96984 8.57585 4.95152 8.51663 4.94333C8.45741 4.93515 8.39708 4.93716 8.33482 4.94944C8.2735 4.96165 8.21734 4.98315 8.16824 5.01484C8.0937 5.06286 8.04973 5.13029 8.03343 5.21712C8.01811 5.30501 8.02117 5.40212 8.04363 5.50943C8.0661 5.61771 8.10188 5.73113 8.15091 5.85071C8.20097 5.96926 8.25408 6.08372 8.3113 6.192C8.36949 6.30035 8.42572 6.39947 8.48189 6.48938C8.53709 6.57934 8.58202 6.65086 8.61574 6.70296C8.80366 6.99629 8.99269 7.28854 9.18166 7.57871C9.37167 7.86997 9.5607 8.16221 9.74862 8.45549C9.78032 8.50453 9.82116 8.56689 9.87123 8.64147C9.92032 8.7161 9.97643 8.79581 10.0377 8.8796C10.0991 8.96436 10.1655 9.0492 10.2349 9.13403C10.3044 9.21887 10.3759 9.29552 10.4484 9.36294C10.521 9.4314 10.5925 9.48656 10.6629 9.53053C10.7335 9.57443 10.7998 9.59595 10.8611 9.5949C10.9347 9.5949 10.997 9.58159 11.0481 9.5571C11.0991 9.5315 11.1554 9.50188 11.2146 9.46719L12.6285 8.58527C12.6683 8.55975 12.6969 8.52701 12.7153 8.48615C12.7521 8.46673 12.7837 8.44322 12.8083 8.41456C12.8491 8.3656 12.8787 8.30836 12.8971 8.24496C12.9165 8.18059 12.9267 8.11317 12.9278 8.04262C12.9298 7.97111 12.9308 7.90264 12.9299 7.83522C12.9278 7.61957 12.9247 7.40702 12.9206 7.19553C12.9155 6.98499 12.9115 6.77245 12.9053 6.55791C13.0923 6.50983 13.2751 6.45877 13.4569 6.4046C13.6378 6.35043 13.8237 6.29931 14.0127 6.25026Z" fill="#F8F9FA"></path><path d="M18.5145 5.40234L16.3726 5.26281C16.3368 5.26041 16.3088 5.26515 16.2885 5.27684C16.2681 5.2886 16.253 5.30569 16.2435 5.32784C16.2338 5.35005 16.2273 5.37506 16.2239 5.40247C16.2204 5.43008 16.2179 5.45684 16.2162 5.48281C16.2113 5.55771 16.2175 5.62585 16.2347 5.6873C16.2519 5.74895 16.297 5.79676 16.3699 5.83092C16.3984 5.84587 16.4496 5.85984 16.524 5.87276C16.5982 5.88581 16.6848 5.89795 16.7837 5.90933C16.8825 5.9207 16.9905 5.93186 17.1074 5.94265C17.2242 5.95362 17.3395 5.96357 17.4533 5.97253C17.567 5.98162 17.6735 5.98935 17.7726 5.99586C17.8718 6.00234 17.9539 6.00767 18.0191 6.0119L18.1069 6.0176C18.1427 6.01994 18.1801 6.02326 18.2189 6.02743C18.2579 6.03163 18.2952 6.03483 18.331 6.03709C18.3895 6.04093 18.4467 6.04146 18.5024 6.03852C18.5581 6.03561 18.6079 6.02332 18.6518 6.0017C18.6956 5.98006 18.732 5.9481 18.7609 5.90595C18.7898 5.8638 18.8066 5.80527 18.8116 5.73036C18.8183 5.62638 18.7957 5.54726 18.7437 5.49321C18.6917 5.4393 18.6153 5.40897 18.5145 5.40234Z" fill="#F8F9FA"></path><path d="M21.7864 5.04037C21.7864 5.09448 21.7802 5.14968 21.768 5.2049C21.7108 5.42459 21.6659 5.64427 21.6321 5.86603C21.5984 6.08676 21.5647 6.30956 21.5309 6.5323L21.4922 6.51288C21.3921 6.46383 21.295 6.41479 21.2 6.36471C21.105 6.31462 21.008 6.26455 20.9079 6.2155C20.8701 6.19712 20.8333 6.17977 20.7985 6.16237C20.7627 6.14502 20.726 6.12865 20.6862 6.11228C20.8568 5.89156 21.0325 5.67701 21.2133 5.46954C21.3952 5.26316 21.5872 5.06388 21.7895 4.87278C21.7864 4.93001 21.7854 4.98515 21.7864 5.04037ZM22.617 4.08388C22.5566 3.9398 22.4698 3.83964 22.3554 3.78345C22.2799 3.74661 22.2043 3.73233 22.1286 3.74052C22.054 3.74973 21.9826 3.77117 21.9141 3.80696C21.8456 3.84275 21.7813 3.88563 21.72 3.93773C21.6577 3.98884 21.6015 4.04093 21.5515 4.09206C21.1959 4.46199 20.8496 4.83906 20.5135 5.22224C20.1764 5.60549 19.8413 5.99068 19.5063 6.37803C19.4725 6.41583 19.4276 6.46793 19.3703 6.5323C19.3131 6.59667 19.2508 6.66721 19.1823 6.74483C19.114 6.82149 19.0435 6.90327 18.9719 6.99011C18.9004 7.07696 18.833 7.15868 18.7697 7.23636C18.7063 7.31406 18.6502 7.38662 18.6032 7.45404C18.5551 7.52147 18.5215 7.57564 18.502 7.6165C18.4815 7.65845 18.4734 7.69931 18.4785 7.74219C18.4837 7.78409 18.4959 7.82292 18.5163 7.85872C18.5378 7.89445 18.5653 7.92614 18.5991 7.95576C18.6338 7.98545 18.6685 8.00889 18.7043 8.02631C18.7799 8.06411 18.8493 8.07736 18.9127 8.06618C18.976 8.05593 19.0363 8.03242 19.0915 7.99564C19.1476 7.95986 19.1987 7.9149 19.2468 7.86282C19.2947 7.80967 19.3397 7.75759 19.3836 7.70645C19.5216 7.54192 19.6584 7.37843 19.7923 7.21493C19.9271 7.05247 20.0619 6.88793 20.1978 6.72236C20.3704 6.80719 20.5421 6.88793 20.7147 6.96555C20.8874 7.04221 21.0621 7.12399 21.2378 7.2098L21.4155 7.30282C21.3972 7.4285 21.3757 7.55316 21.3492 7.6758C21.3236 7.79942 21.2909 7.92309 21.2531 8.04573C21.2286 8.1244 21.2 8.22559 21.1662 8.3492C21.1336 8.47289 21.1112 8.5965 21.1009 8.72218C21.0897 8.84788 21.0999 8.96442 21.1285 9.07063C21.1581 9.17793 21.2224 9.25562 21.3216 9.30466C21.3777 9.33123 21.4381 9.35169 21.5044 9.36396C21.5709 9.37625 21.6362 9.37923 21.7006 9.37007C21.765 9.36189 21.8232 9.34142 21.8772 9.30979C21.9304 9.2781 21.9734 9.2301 22.005 9.16573C22.0489 9.07471 22.0836 8.98072 22.1071 8.88368C22.1317 8.78657 22.1562 8.68952 22.1817 8.59344C22.2073 8.49022 22.242 8.34817 22.2869 8.16836C22.3309 7.9885 22.3769 7.78512 22.4249 7.55829C22.4729 7.33146 22.5199 7.0882 22.5679 6.82766C22.6149 6.56809 22.6548 6.30851 22.6864 6.04791C22.717 5.78736 22.7395 5.53292 22.7518 5.2846C22.7651 5.03731 22.7599 4.81042 22.7395 4.60606C22.7181 4.40164 22.6772 4.22698 22.617 4.08386" fill="#F8F9FA"></path><path d="M24.8673 6.43904C24.8309 6.48542 24.7957 6.53057 24.7617 6.57454C24.7276 6.61852 24.705 6.64646 24.6939 6.65834C24.4757 6.92714 24.2539 7.19261 24.0285 7.45478C23.8031 7.71694 23.5779 7.98133 23.3528 8.24816C23.1871 8.44116 23.0207 8.63478 22.854 8.82901C22.6871 9.02329 22.5173 9.21355 22.3445 9.39991C22.3179 9.42856 22.2895 9.45558 22.2593 9.48091C22.2291 9.50632 22.1996 9.53451 22.1709 9.56563C22.1243 9.61576 22.0958 9.67041 22.0853 9.72963C22.0748 9.78875 22.0776 9.84813 22.0937 9.90749C22.1098 9.96673 22.1356 10.024 22.171 10.0793C22.2065 10.1345 22.2458 10.182 22.2888 10.2219C22.3389 10.2685 22.397 10.309 22.4628 10.3434C22.5286 10.3779 22.5969 10.4001 22.6676 10.4101C22.7384 10.4201 22.8073 10.4164 22.8747 10.3989C22.9421 10.3813 23.0024 10.3439 23.0556 10.2865C23.1331 10.203 23.2047 10.1172 23.2707 10.0294C23.3366 9.94159 23.4047 9.8526 23.4752 9.76237C23.7724 9.38907 24.0676 9.01823 24.3604 8.6498C24.6532 8.28122 24.9614 7.92266 25.2851 7.57378C25.3404 7.51409 25.4047 7.44822 25.4782 7.37624C25.5516 7.30434 25.6301 7.2449 25.7136 7.19794C25.7971 7.15097 25.8833 7.12525 25.9719 7.12077C26.0604 7.11622 26.1454 7.15175 26.2266 7.2271C26.2958 7.29134 26.3283 7.35715 26.324 7.42418C26.3194 7.49116 26.3054 7.56266 26.2817 7.63848C26.2581 7.71427 26.2364 7.79528 26.2165 7.88135C26.1967 7.96748 26.2036 8.05946 26.2373 8.15735C26.2943 8.206 26.3564 8.24453 26.4232 8.27324C26.4899 8.30188 26.5567 8.31721 26.6237 8.31936C26.6907 8.32143 26.7565 8.31027 26.8214 8.2859C26.8861 8.26161 26.9451 8.22081 26.9983 8.1634C27.0516 8.10611 27.095 8.0364 27.1288 7.95443C27.1627 7.87239 27.1814 7.78872 27.1851 7.70324C27.1888 7.61776 27.1776 7.53396 27.1516 7.45192C27.1253 7.36995 27.0812 7.29998 27.0192 7.24237L24.6436 5.03767C24.591 4.98895 24.5288 4.95894 24.4569 4.94782C24.385 4.93672 24.3131 4.94003 24.2411 4.95771C24.1691 4.97531 24.1004 5.00271 24.035 5.03974C23.9694 5.07677 23.9146 5.11918 23.8703 5.167C23.7683 5.27691 23.7187 5.40103 23.7216 5.53926C23.7244 5.67756 23.7764 5.80019 23.8772 5.90712C23.9589 5.93407 24.0453 5.94757 24.1364 5.94757C24.2274 5.94765 24.3173 5.94771 24.4061 5.94784C24.495 5.94796 24.5818 5.95732 24.6666 5.9761C24.7515 5.99487 24.8298 6.03742 24.9014 6.10394L24.9194 6.12062C24.9384 6.13836 24.9564 6.15609 24.9732 6.17389C24.99 6.19176 25.0001 6.21332 25.0033 6.23852C25.0059 6.24541 24.9929 6.26886 24.9645 6.30913C24.936 6.3494 24.9036 6.39274 24.8673 6.43904Z" fill="#F8F9FA"></path><path d="M26.1368 10.5996C26.2111 10.5222 26.2977 10.4436 26.3966 10.3636C26.4955 10.2836 26.593 10.2091 26.6889 10.1403C26.7847 10.0714 26.8717 10.0102 26.9502 9.95679C27.0285 9.90334 27.0854 9.86482 27.1207 9.84124C27.1856 9.79714 27.2592 9.74836 27.3412 9.6947C27.4232 9.64104 27.506 9.58239 27.5897 9.51841C27.6734 9.45456 27.751 9.38648 27.8227 9.31437C27.8942 9.24227 27.9522 9.16582 27.9964 9.08482C28.0406 9.00388 28.0649 8.91905 28.0694 8.83064C28.0737 8.74205 28.0488 8.64954 27.9946 8.55294C27.9706 8.51034 27.9377 8.46525 27.896 8.41764C27.8543 8.37009 27.8074 8.3282 27.7553 8.29208C27.7032 8.25596 27.6488 8.23239 27.5921 8.22127C27.5354 8.21011 27.4801 8.21985 27.4261 8.25018C27.3778 8.27733 27.3365 8.31183 27.3021 8.3536C27.2676 8.39549 27.2324 8.43764 27.1966 8.48026C27.111 8.58082 27.0229 8.66494 26.9321 8.73288C26.8413 8.80082 26.7421 8.8687 26.6345 8.93671C26.4563 9.05195 26.2802 9.17257 26.1061 9.29852C25.9322 9.42455 25.7766 9.56348 25.6396 9.71536C25.5025 9.86722 25.3922 10.0369 25.3088 10.2241C25.2252 10.4113 25.1849 10.6238 25.1878 10.8615C25.0995 10.9373 25.0063 11.0075 24.908 11.0722C24.8098 11.1367 24.7095 11.1979 24.6074 11.2555C24.525 11.3018 24.4421 11.3456 24.3588 11.3869C24.2755 11.4281 24.1926 11.4719 24.1102 11.5184C24.0421 11.5566 23.9846 11.6058 23.938 11.6657C23.8914 11.7256 23.858 11.7911 23.8382 11.8621C23.8183 11.9331 23.8123 12.0057 23.8203 12.0798C23.8283 12.1537 23.8522 12.2262 23.8922 12.2973C23.9401 12.3825 24.0001 12.4441 24.0719 12.4823C24.1438 12.5204 24.2207 12.5407 24.3025 12.5433C24.3844 12.5458 24.4672 12.5338 24.5513 12.507C24.6353 12.4803 24.7142 12.4462 24.7881 12.4046C24.95 12.3136 25.1048 12.2133 25.2527 12.104C25.4006 11.9946 25.5546 11.8929 25.7149 11.799C25.8947 11.9259 26.0859 12.0016 26.2885 12.0261C26.4909 12.0505 26.6956 12.0438 26.9024 12.006C27.1092 11.9681 27.3139 11.9099 27.5166 11.8315C27.7191 11.753 27.909 11.6752 28.0862 11.5979C28.2118 11.5421 28.337 11.4923 28.4618 11.4482C28.5865 11.4042 28.7156 11.3709 28.8487 11.3484C28.9065 11.3383 28.9626 11.3282 29.0169 11.3182C29.071 11.3084 29.1238 11.289 29.1748 11.2602C29.2287 11.2299 29.2656 11.1923 29.2853 11.1476C29.305 11.1028 29.3124 11.0546 29.3079 11.0031C29.3031 10.9515 29.2912 10.9002 29.2719 10.8494C29.2526 10.7985 29.231 10.7518 29.2071 10.7092C29.1464 10.6012 29.0875 10.5165 29.0306 10.455C28.9736 10.3936 28.9128 10.3539 28.8486 10.3359C28.7842 10.3179 28.7117 10.3204 28.6311 10.3432C28.5506 10.3662 28.4563 10.4079 28.3484 10.4687C28.2292 10.5358 28.1066 10.5972 27.9809 10.6529C27.8553 10.7087 27.7272 10.7602 27.5968 10.8075C27.5538 10.8242 27.4871 10.8468 27.3965 10.8752C27.306 10.9038 27.2046 10.9328 27.0923 10.9623C26.9799 10.9919 26.8627 11.0194 26.7407 11.0451C26.6185 11.0708 26.5038 11.0878 26.3963 11.0959C26.2887 11.1041 26.1955 11.1013 26.1168 11.0876C26.0381 11.0739 25.9851 11.0429 25.958 10.9947C25.9308 10.9463 25.9352 10.8878 25.9713 10.8189C26.0073 10.75 26.0625 10.6769 26.1368 10.5995" fill="#F8F9FA"></path><path d="M10.2508 57.5419L9.56495 57.2894L9.83607 56.5529L10.6397 56.8488C10.7075 56.8738 10.7827 56.8391 10.8076 56.7713L10.808 56.7703C10.833 56.7025 10.7983 56.6273 10.7304 56.6023L9.76223 56.2459C9.69441 56.2209 9.61919 56.2556 9.59425 56.3234L8.84307 58.364C8.81807 58.4318 8.85282 58.507 8.92057 58.532L9.90454 58.8942C9.97236 58.9192 10.0475 58.8845 10.0725 58.8167L10.0728 58.8157C10.0979 58.7479 10.0631 58.6727 9.99523 58.6477L9.17591 58.3461L9.4742 57.5359L10.1601 57.7884C10.2278 57.8134 10.303 57.7786 10.328 57.7108L10.3284 57.7099C10.3534 57.6421 10.3186 57.5669 10.2508 57.5419Z" fill="#F8F9FA"></path><path d="M12.1813 57.2032C12.0947 57.0333 11.9381 56.9168 11.7113 56.8538C11.4651 56.7855 11.2463 56.8202 11.0546 56.9581C10.863 57.0958 10.7248 57.3174 10.64 57.6225L10.5219 58.0482C10.4368 58.3545 10.4387 58.6164 10.5277 58.8338C10.6166 59.0512 10.7788 59.1927 11.0141 59.2581C11.2484 59.3232 11.4483 59.3066 11.614 59.2084C11.7455 59.1305 11.8509 59.0052 11.9301 58.8328C11.9639 58.7593 11.9238 58.672 11.8459 58.6503L11.8003 58.6377C11.739 58.6206 11.673 58.6502 11.6471 58.7084C11.5868 58.8446 11.5204 58.9361 11.4483 58.9827C11.3594 59.0402 11.2382 59.0477 11.0844 59.0049C10.9307 58.9622 10.8314 58.8664 10.7866 58.7174C10.7417 58.5683 10.7523 58.375 10.8183 58.1374L10.9377 57.707C11.005 57.4651 11.0989 57.2936 11.2197 57.1923C11.3405 57.0909 11.4809 57.0625 11.6411 57.107C11.7797 57.1454 11.8715 57.215 11.9166 57.3155C11.9527 57.3962 11.9613 57.5074 11.9425 57.649C11.934 57.7126 11.9752 57.7729 12.037 57.79L12.0831 57.8028C12.1603 57.8243 12.2391 57.7711 12.249 57.6916C12.2729 57.5015 12.2502 57.3387 12.1813 57.2031" fill="#F8F9FA"></path><path d="M13.6233 58.3311L13.5417 58.7805C13.494 59.0246 13.4186 59.1986 13.316 59.3023C13.2132 59.4062 13.0774 59.4427 12.9083 59.412C12.7393 59.3813 12.624 59.2939 12.5622 59.1501C12.5005 59.0062 12.4918 58.812 12.5363 58.5673L12.6143 58.1376C12.6596 57.894 12.7363 57.7175 12.8441 57.6078C12.9519 57.4982 13.0886 57.4585 13.2543 57.4885C13.4256 57.5196 13.5413 57.6044 13.6018 57.743C13.6622 57.8814 13.6694 58.0775 13.6233 58.3311H13.6233ZM13.3037 57.2169C13.0502 57.1709 12.836 57.2257 12.6615 57.3817C12.487 57.5376 12.3706 57.7758 12.3124 58.0963L12.2305 58.5473C12.1789 58.8622 12.2091 59.1186 12.3211 59.3164C12.4332 59.5141 12.6126 59.6354 12.8596 59.6803C13.1164 59.7269 13.3306 59.6747 13.502 59.5232C13.6735 59.3719 13.7889 59.1326 13.8483 58.8055L13.9276 58.3693C13.9829 58.046 13.9559 57.7846 13.8464 57.5851C13.7371 57.3854 13.5561 57.2628 13.3037 57.2169Z" fill="#F8F9FA"></path><path d="M15.0232 58.2946C14.9208 58.2861 14.8363 58.3104 14.7694 58.3674C14.7025 58.4246 14.665 58.5015 14.657 58.5982L14.6517 58.6615C14.6435 58.7593 14.6678 58.8416 14.7243 58.9085C14.7808 58.9753 14.8608 59.0132 14.9641 59.0217C15.0686 59.0305 15.154 59.0068 15.2203 58.9508C15.2865 58.8947 15.3236 58.8184 15.3317 58.7216L15.3368 58.66C15.3454 58.5565 15.3207 58.472 15.2624 58.4061C15.204 58.3402 15.1243 58.3031 15.0232 58.2946Z" fill="#F8F9FA"></path><path d="M17.1693 59.7373L16.345 59.7239L16.378 57.6815C16.3791 57.6093 16.3215 57.5498 16.2493 57.5486L16.2032 57.5479C16.1309 57.5467 16.0714 57.6043 16.0702 57.6766L16.0349 59.8507C16.0338 59.923 16.0914 59.9825 16.1636 59.9837L17.1651 60C17.2373 60.0011 17.2969 59.9436 17.298 59.8713V59.8702C17.2993 59.798 17.2416 59.7384 17.1693 59.7373Z" fill="#F8F9FA"></path><path d="M18.5961 59.4852C18.5226 59.6113 18.4001 59.6807 18.2288 59.6932C18.0576 59.7059 17.9239 59.6503 17.8283 59.5265C17.7324 59.4026 17.6754 59.2167 17.6572 58.9686L17.6252 58.5331C17.6081 58.2861 17.6381 58.0959 17.715 57.9628C17.7918 57.8296 17.9143 57.7569 18.0823 57.7445C18.2559 57.7317 18.3891 57.7848 18.4824 57.9039C18.5756 58.0227 18.6315 58.2108 18.6505 58.4678L18.684 58.9234C18.6989 59.1717 18.6696 59.3589 18.5961 59.4852ZM18.9547 58.4287C18.9273 58.1019 18.8356 57.8555 18.6797 57.6896C18.5238 57.5239 18.3179 57.4504 18.062 57.4692C17.8051 57.4881 17.6116 57.5948 17.4816 57.7895C17.3516 57.9842 17.2986 58.2439 17.3225 58.5687L17.3561 59.026C17.385 59.3437 17.4785 59.5842 17.6365 59.7477C17.7944 59.9113 17.9986 59.9837 18.2488 59.9653C18.5092 59.9462 18.7034 59.8419 18.8316 59.6524C18.9596 59.4629 19.0115 59.2023 18.9871 58.8709L18.9547 58.4287Z" fill="#F8F9FA"></path><path d="M20.3917 59.2138C20.3139 59.3518 20.1687 59.4383 19.9563 59.4735L19.7137 59.5137L19.4015 57.6286L19.6723 57.5837C19.8694 57.5511 20.0264 57.586 20.1433 57.6883C20.2603 57.7906 20.3397 57.9684 20.3817 58.2217L20.4523 58.6479C20.4896 58.8874 20.4694 59.0761 20.3917 59.2138ZM20.6821 58.1814C20.6294 57.8634 20.5109 57.6295 20.3267 57.4796C20.1424 57.3298 19.91 57.2781 19.6294 57.3246L19.1858 57.398C19.1144 57.4099 19.0662 57.4772 19.0779 57.5484L19.4331 59.6939C19.4449 59.7651 19.5123 59.8133 19.5836 59.8016L19.9927 59.7338C20.292 59.6843 20.506 59.5597 20.6346 59.3604C20.7634 59.161 20.8014 58.9023 20.7487 58.5843L20.6821 58.1814Z" fill="#F8F9FA"></path><path d="M24.3569 58.4266L24.3565 58.4256C24.3326 58.3574 24.2579 58.3216 24.1896 58.3456L23.3662 58.6355L23.0795 57.8211L23.7689 57.5784C23.8371 57.5544 23.8729 57.4798 23.8489 57.4116L23.8485 57.4106C23.8246 57.3425 23.7498 57.3067 23.6816 57.3307L22.9923 57.5734L22.7317 56.8331L23.5395 56.5488C23.6077 56.5247 23.6435 56.45 23.6195 56.3818L23.6191 56.3809C23.5951 56.3127 23.5204 56.2769 23.4523 56.3009L22.4791 56.6436C22.4109 56.6676 22.3751 56.7422 22.399 56.8104L23.1212 58.8616C23.1451 58.9297 23.2198 58.9656 23.288 58.9415L24.2769 58.5934C24.3451 58.5694 24.3809 58.4947 24.3569 58.4266Z" fill="#F8F9FA"></path><path d="M22.5114 58.0839C22.4905 58.0035 22.4084 57.9553 22.328 57.9762L21.8731 58.0946C21.8032 58.1128 21.7612 58.1842 21.7794 58.2542L21.7797 58.2552C21.7979 58.3251 21.8693 58.367 21.9392 58.3488L22.2434 58.2697L22.3842 58.8113L22.351 58.863C22.2881 58.962 22.1766 59.0322 22.0169 59.0737C21.8474 59.1179 21.7008 59.0884 21.5772 58.985C21.4535 58.8819 21.3607 58.7114 21.2989 58.474L21.1738 57.9931C21.1138 57.7493 21.1088 57.5618 21.1589 57.4307C21.2088 57.2996 21.3185 57.2119 21.4882 57.1677C21.6296 57.1311 21.7458 57.1449 21.8369 57.2093C21.9065 57.2585 21.964 57.3308 22.0096 57.4261C22.0361 57.4811 22.0993 57.5085 22.1583 57.4931L22.2019 57.4817C22.2808 57.4613 22.3231 57.3732 22.2885 57.2995C22.2167 57.1466 22.1192 57.0348 21.9961 56.9639C21.8368 56.8722 21.6449 56.8555 21.4203 56.914C21.1569 56.9825 20.9805 57.1163 20.8911 57.3154C20.8017 57.5144 20.8 57.7791 20.886 58.1094L21.0065 58.5725C21.09 58.8804 21.2264 59.1001 21.4155 59.2311C21.6046 59.3623 21.8266 59.3948 22.0814 59.3284C22.331 59.2635 22.5111 59.1464 22.6222 58.9772C22.7038 58.8552 22.6793 58.7291 22.6559 58.6392L22.5114 58.0839Z" fill="#F8F9FA"></path><path d="M28.1653 49.8431C28.0877 49.8431 28.0203 49.8697 27.9651 49.9146C27.9651 49.9146 27.964 49.9156 27.9631 49.9156C27.9508 49.9289 27.9375 49.9412 27.9242 49.9545C27.9222 49.9555 27.9212 49.9565 27.9202 49.9585C24.9535 52.8586 20.9591 54.5182 16.7012 54.5182C10.6321 54.5182 5.34131 51.1327 2.6086 46.152C2.56673 46.0764 2.52588 46.0018 2.48704 45.9272C2.40126 45.7668 2.32048 45.6073 2.24391 45.4479C2.23366 45.4275 2.22347 45.4071 2.2143 45.3867C2.17243 45.2977 2.1295 45.2088 2.08866 45.1189C2.08755 45.1179 2.08755 45.1179 2.08755 45.1169C2.04676 45.0279 2.0069 44.938 1.96806 44.8481C1.92922 44.7591 1.89143 44.6693 1.85363 44.5794C1.81383 44.4833 1.77604 44.3882 1.73824 44.2933C1.61766 43.9836 1.50531 43.675 1.40622 43.3674C1.35512 43.209 1.30713 43.0506 1.2622 42.8922C1.24479 42.833 1.22849 42.7737 1.21212 42.7144C1.18758 42.6255 1.16408 42.5367 1.1416 42.4476C1.09569 42.2719 1.05277 42.0942 1.01393 41.9153C0.994526 41.8254 0.975109 41.7355 0.956734 41.6456C0.944453 41.5852 0.933216 41.5249 0.92095 41.4647C0.873993 41.2256 0.833144 40.9854 0.799387 40.7442C0.787106 40.6635 0.775948 40.5827 0.766721 40.502C0.761594 40.4622 0.756466 40.4233 0.752367 40.3835C0.741193 40.2997 0.731982 40.2159 0.7238 40.1311C0.713607 40.033 0.704381 39.9349 0.696199 39.8368C0.683918 39.6937 0.673787 39.5507 0.666587 39.4066C0.661522 39.3341 0.657424 39.2615 0.655351 39.1889C0.652296 39.1439 0.650222 39.099 0.64924 39.0531C0.646201 38.9611 0.643086 38.8681 0.64106 38.7761C0.635932 38.5574 0.631849 38.3377 0.628794 38.1159C0.531716 38.0914 0.424506 38.0781 0.305982 38.0781C0.150397 38.0781 0.0232545 38.1952 0.00434992 38.3457C-0.0020711 38.3682 0.000514551 38.445 0.000514551 38.445C0.000514551 47.6562 7.49171 55.1517 16.7012 55.1517C21.1288 55.1517 25.2835 53.4247 28.3676 50.405C28.3748 50.3989 28.3819 50.3917 28.3901 50.3846C28.4473 50.3263 28.4831 50.2476 28.4831 50.1598C28.4831 49.9851 28.339 49.843 28.1654 49.843" fill="#F8F9FA"></path></svg> 